<?xml version="1.0" encoding="UTF-8"?>
<svg version="1.1" xmlns="http://www.w3.org/2000/svg" width="512" height="512">
<path d="M0 0 C1.87416791 -0.00461261 3.74833221 -0.01096795 5.62248898 -0.01890898 C10.75700288 -0.03557581 15.89121862 -0.02736788 21.02573347 -0.0149641 C26.56910673 -0.00590515 32.11242912 -0.01988755 37.65579224 -0.03088379 C48.50909989 -0.04866452 59.36229686 -0.04483097 70.21560884 -0.03323323 C79.03680469 -0.02419745 87.85796954 -0.02297554 96.6791687 -0.02732849 C97.93494058 -0.02794142 99.19071245 -0.02855436 100.48453802 -0.02918586 C103.03566338 -0.03046477 105.58678872 -0.03176162 108.13791406 -0.03307623 C131.37462272 -0.04415566 154.6112666 -0.03266844 177.84796153 -0.01170584 C199.0501219 0.00727591 220.25218617 0.00557737 241.4543457 -0.0135498 C265.28757955 -0.03497881 289.12076041 -0.0433821 312.95400715 -0.03110075 C315.49571545 -0.02982656 318.03742376 -0.02856908 320.57913208 -0.02732849 C321.82968114 -0.02671139 323.08023021 -0.02609429 324.3686747 -0.02545848 C333.17864742 -0.02200568 341.98858603 -0.02783245 350.79855347 -0.0372467 C361.5358637 -0.04846835 372.27305696 -0.04542305 383.0103538 -0.02412373 C388.48804839 -0.01361566 393.965548 -0.00948752 399.44324112 -0.02272034 C404.45938153 -0.03465483 409.47514657 -0.02806398 414.49125302 -0.00681013 C416.30403687 -0.00234859 418.11685254 -0.00460024 419.92961586 -0.01431328 C430.88298734 -0.06849273 440.88848665 -0.03037336 449.50415039 7.63293457 C457.2652311 16.31715739 457.20551947 26.55271077 457.13708496 37.60095215 C457.14169919 39.22763279 457.14805561 40.85430925 457.15599394 42.48097706 C457.17263871 46.93141201 457.16446307 51.38150234 457.15204906 55.83193827 C457.14298097 60.63911133 457.15697702 65.44622606 457.16796875 70.25338745 C457.18573978 79.6628925 457.18192028 89.0722698 457.17031819 98.48177981 C457.16127858 106.13020802 457.16006215 113.77860046 457.16441345 121.42703247 C457.16502638 122.51628267 457.16563932 123.60553287 457.16627082 124.72779065 C457.16754975 126.94069601 457.1688466 129.15360136 457.17016119 131.3665067 C457.18156284 152.10886565 457.16845977 172.85115386 457.14695972 193.59350121 C457.12908913 211.3850014 457.13219335 229.1763972 457.15063477 246.96789551 C457.17204879 267.6368707 457.18046424 288.3057839 457.16818571 308.97476864 C457.16691154 311.17945797 457.16565405 313.38414732 457.16441345 315.58883667 C457.1634878 317.21589034 457.1634878 317.21589034 457.16254345 318.87581378 C457.15909215 326.51358868 457.16491416 334.15132421 457.17433167 341.78909302 C457.18555891 351.09909561 457.18249627 360.40896333 457.16120869 369.71895051 C457.15070811 374.46755918 457.14655958 379.2159431 457.1598053 383.96455002 C457.17175551 388.31455886 457.16512345 392.66413538 457.14389509 397.0141052 C457.13944015 398.58462898 457.14167032 400.15518956 457.15139824 401.72568953 C457.20873816 411.75493022 456.32994542 419.83338219 450.75415039 428.38293457 C445.5152151 433.62186986 440.06331175 436.31914182 432.66532898 436.72584534 C431.14499082 436.7219927 429.62465495 436.70737252 428.10449219 436.68395996 C427.26951202 436.67954895 426.43453186 436.67513794 425.57424927 436.67059326 C423.76874494 436.66077978 421.96325889 436.64694307 420.15781212 436.62950325 C416.30962188 436.5969811 412.46169732 436.59953433 408.61339283 436.59979153 C401.45822876 436.59964813 394.30375091 436.58451246 387.14892578 436.51159668 C382.16189216 436.46211936 377.17645303 436.4566917 372.18924904 436.47973442 C370.29589162 436.48030119 368.40245436 436.46472899 366.50937462 436.43229866 C356.07493853 435.9787293 356.07493853 435.9787293 346.55142212 439.45516968 C344.30787221 441.69017349 342.49380686 443.95672974 340.62915039 446.50793457 C339.3265811 447.72910092 337.99761165 448.92359203 336.62915039 450.07043457 C336.07227539 450.54609863 335.51540039 451.0217627 334.94165039 451.51184082 C331.04461187 453.19046383 327.72046862 453.2878645 323.62915039 452.50793457 C319.91937826 450.97671442 316.36882541 449.21563518 312.77978516 447.4251709 C300.38066181 440.74804989 300.38066181 440.74804989 286.93774414 440.43762207 C282.89342775 442.20416982 279.31265583 444.58543937 275.72583008 447.13977051 C272.32068397 449.36175919 268.64305134 450.62874275 264.81665039 451.94543457 C264.17606689 452.17851318 263.5354834 452.4115918 262.87548828 452.6517334 C261.13214211 453.28561397 259.38079548 453.89736114 257.62915039 454.50793457 C256.5734082 454.89078613 255.51766602 455.2736377 254.42993164 455.66809082 C251.62915039 456.50793457 251.62915039 456.50793457 247.62915039 456.50793457 C247.51216797 457.20539795 247.39518555 457.90286133 247.2746582 458.62145996 C246.00846493 464.2834127 243.55216992 469.58096991 241.37915039 474.94543457 C240.9009082 476.16037598 240.42266602 477.37531738 239.92993164 478.6270752 C234.94514989 490.95394063 234.94514989 490.95394063 230.62915039 494.50793457 C223.64405277 497.09145278 215.97520206 496.81386897 208.62915039 496.75793457 C207.61336914 496.76566895 206.59758789 496.77340332 205.55102539 496.78137207 C191.59982533 496.74559976 191.59982533 496.74559976 186.62915039 494.50793457 C182.68277909 490.48234576 180.59322218 486.71608478 178.51586914 481.42980957 C178.25659134 480.77716125 177.99731354 480.12451294 177.73017883 479.4520874 C177.18983789 478.08606165 176.6548276 476.71791605 176.125 475.34777832 C175.31179472 473.24538109 174.48271373 471.14980004 173.65063477 469.05480957 C169.62915039 458.84448756 169.62915039 458.84448756 169.62915039 456.50793457 C168.63786133 456.39578613 167.64657227 456.2836377 166.62524414 456.16809082 C162.4604695 455.56715094 158.64513158 454.35937244 154.69165039 452.94543457 C153.96236328 452.6872998 153.23307617 452.42916504 152.48168945 452.16320801 C145.73031245 449.69205883 139.38123828 446.57418891 133.01977539 443.24230957 C131.90086914 442.66996582 130.78196289 442.09762207 129.62915039 441.50793457 C128.87762695 441.08753906 128.12610352 440.66714355 127.35180664 440.23400879 C123.53984777 439.21744085 121.08681508 440.54576114 117.67602539 442.15637207 C117.0163678 442.44775055 116.35671021 442.73912903 115.67706299 443.03933716 C113.56994729 443.97078394 111.47388298 444.92399326 109.37915039 445.88293457 C92.06997317 453.79937909 92.06997317 453.79937909 84.62915039 452.50793457 C81.55493164 450.75012207 81.55493164 450.75012207 78.94165039 448.38293457 C78.0715332 447.61723145 77.20141602 446.85152832 76.30493164 446.06262207 C73.62915039 443.50793457 73.62915039 443.50793457 72.35503864 441.97089577 C69.71050397 438.90265169 67.78617171 437.14514557 63.66532898 436.77536011 C62.14520069 436.75261586 60.62436053 436.76230198 59.10449219 436.79846191 C57.85202194 436.79215508 57.85202194 436.79215508 56.57424927 436.78572083 C53.82487764 436.77803595 51.077535 436.8115628 48.32836914 436.84387207 C46.40793931 436.8427775 44.48750886 436.8384655 42.5670929 436.83108521 C37.51508522 436.81768682 32.46378944 436.83648829 27.41186523 436.86553955 C19.3375625 436.9109169 11.26364899 436.92643978 3.18924904 436.90599442 C0.37892364 436.9063654 -2.4303837 436.93206708 -5.24055481 436.95968628 C-6.97970571 436.96037175 -8.71885738 436.96006688 -10.45800781 436.95861816 C-11.61560356 436.98030312 -11.61560356 436.98030312 -12.79658508 437.00242615 C-19.79345787 436.95257573 -25.22187044 434.4402627 -31.12084961 430.82043457 C-37.30279912 424.46676424 -39.49203495 417.56312901 -39.50507069 408.89043236 C-39.50742292 408.22359371 -39.50977515 407.55675507 -39.51219866 406.86970919 C-39.51887919 404.62527119 -39.51843072 402.3808912 -39.51802063 400.13644409 C-39.52131984 398.51494656 -39.52504553 396.89344984 -39.52916211 395.27195418 C-39.53918367 390.80807639 -39.54289915 386.34421205 -39.54555142 381.8803246 C-39.54945399 377.06897361 -39.55903235 372.25763326 -39.56776428 367.44628906 C-39.58752977 355.82304098 -39.5975949 344.19979203 -39.60649207 332.57653135 C-39.61087474 327.10372036 -39.6162416 321.63091035 -39.62148094 316.15810013 C-39.63849313 297.96669147 -39.65298758 279.77528342 -39.66022968 261.58386803 C-39.66213959 256.86275609 -39.66405992 252.14164415 -39.66601562 247.42053223 C-39.66649937 246.24711512 -39.66698311 245.07369801 -39.6674815 243.8647228 C-39.67578285 224.85364833 -39.70112159 205.84263675 -39.7335963 186.83158974 C-39.7666611 167.3160994 -39.78467791 147.80064102 -39.78787392 128.28512251 C-39.79003953 117.32676457 -39.79879564 106.36849835 -39.8243351 95.41016769 C-39.84603413 86.07808052 -39.8540964 76.74610736 -39.84436832 67.41399781 C-39.83982136 62.65326559 -39.84173292 57.89276864 -39.86112976 53.13206863 C-39.87874582 48.77074064 -39.87777637 44.40981985 -39.86223247 40.04848762 C-39.85985404 38.47373756 -39.86419219 36.89895942 -39.87606112 35.32425229 C-39.9493559 24.95458786 -39.44898675 15.69391043 -32.24584961 7.63293457 C-22.92490899 -0.65769054 -11.74624813 -0.06293804 0 0 Z " fill="#E0EDFE" transform="translate(47.370849609375,7.4920654296875)"/>
<path d="M0 0 C3.50554988 -0.09366734 7.00695791 -0.1233084 10.51367188 -0.13867188 C11.70605469 -0.15929687 12.8984375 -0.17992188 14.12695312 -0.20117188 C25.23210272 -0.25080383 25.23210272 -0.25080383 29.76367188 3.11132812 C33.11378977 6.82520882 34.94517736 10.45527769 36.77929688 15.09179688 C37.170336 16.07289177 37.170336 16.07289177 37.5692749 17.07380676 C38.11438772 18.44627392 38.65536809 19.82038898 39.19238281 21.19604492 C40.01663571 23.30641657 40.85387165 25.41127318 41.69335938 27.515625 C45.76367188 37.7996167 45.76367188 37.7996167 45.76367188 40.11132812 C46.29992187 40.18609375 46.83617187 40.26085937 47.38867188 40.33789062 C60.26114439 42.49741726 71.96057999 47.8075644 83.17993164 54.30297852 C86.67114299 56.47672598 86.67114299 56.47672598 90.60986328 56.86938477 C93.37919028 55.89468965 96.06976431 54.79238663 98.77148438 53.64257812 C100.49818359 52.90974609 100.49818359 52.90974609 102.25976562 52.16210938 C103.45730469 51.65035156 104.65484375 51.13859375 105.88867188 50.61132812 C107.69658203 49.84369141 107.69658203 49.84369141 109.54101562 49.06054688 C115.20452727 46.70024886 115.20452727 46.70024886 120.76367188 44.11132812 C124.34274615 43.12782218 127.16454279 43.18610214 130.76367188 44.11132812 C141.32012539 50.35122587 152.00752284 61.97710457 158.76367188 72.11132812 C160.78083425 81.25986101 155.95078062 89.42866611 152.13867188 97.42382812 C150.87600936 100.07764017 149.63762194 102.74097654 148.41210938 105.41210938 C147.85700684 106.57911377 147.3019043 107.74611816 146.72998047 108.94848633 C145.48438768 112.02534255 145.48438768 112.02534255 146.48974609 114.81591797 C147.12033936 115.952146 147.12033936 115.952146 147.76367188 117.11132812 C148.33601563 118.24183594 148.90835937 119.37234375 149.49804688 120.53710938 C149.984104 121.47296875 149.984104 121.47296875 150.47998047 122.42773438 C153.72651039 128.6968956 156.66362165 134.99677997 159.13867188 141.61132812 C159.49590332 142.5613269 159.49590332 142.5613269 159.86035156 143.53051758 C161.67769327 148.53082971 161.67769327 148.53082971 162.05755615 151.09553528 C162.39922578 153.28882159 162.83602638 155.0902936 163.76367188 157.11132812 C166.42438863 158.82376654 168.34201624 159.77172357 171.25585938 160.77929688 C171.99820831 161.06686356 172.74055725 161.35443024 173.50540161 161.65071106 C175.87302204 162.5634299 178.25342805 163.43332812 180.63867188 164.29882812 C183.01403445 165.18049293 185.38509763 166.07107009 187.7505188 166.9790802 C189.22006631 167.54121399 190.69578247 168.08755684 192.177948 168.61552429 C197.47050245 170.61091879 200.2475794 173.07914317 202.76367188 178.11132812 C202.88680488 180.66727076 202.95204047 183.19489864 202.96679688 185.75195312 C202.97249695 186.51175476 202.97819702 187.2715564 202.98406982 188.05438232 C202.9935238 189.6649842 203.00005538 191.27560545 203.00390625 192.88623047 C203.0135795 195.33791444 203.04458438 197.78874839 203.07617188 200.24023438 C203.08270539 201.80663566 203.0879545 203.37304293 203.09179688 204.93945312 C203.10414368 205.66779358 203.11649048 206.39613403 203.12921143 207.14654541 C203.10864741 211.90069681 202.37032448 215.12677196 199.76367188 219.11132812 C196.17915386 222.59283158 192.40090418 224.30027771 187.78320312 226.12695312 C187.12913986 226.38764587 186.4750766 226.64833862 185.80119324 226.91693115 C184.42872608 227.46204397 183.05461102 228.00302434 181.67895508 228.54003906 C179.56858343 229.36429196 177.46372682 230.2015279 175.359375 231.04101562 C165.0753833 235.11132812 165.0753833 235.11132812 162.76367188 235.11132812 C162.65152344 236.10261719 162.539375 237.09390625 162.42382812 238.11523438 C161.82286392 242.28017757 160.61444143 246.09499979 159.20117188 250.04882812 C158.94376221 250.77956543 158.68635254 251.51030273 158.42114258 252.26318359 C156.21358072 258.31594519 153.48575851 264.02134275 150.39233398 269.66967773 C148.13870805 273.88572763 147.07423282 277.3450715 146.76367188 282.11132812 C147.68893199 285.38512144 147.68893199 285.38512144 149.29101562 288.56835938 C149.83564453 289.76396484 150.38027344 290.95957031 150.94140625 292.19140625 C151.81666679 294.05613427 152.6982776 295.91773225 153.58178711 297.77856445 C160.37664373 312.21165843 160.37664373 312.21165843 158.76367188 320.11132812 C157.40039062 322.85351563 157.40039062 322.85351563 155.45117188 324.98632812 C154.7215625 325.80488281 153.99195313 326.6234375 153.24023438 327.46679688 C152.42296875 328.33949219 151.60570312 329.2121875 150.76367188 330.11132812 C149.87245729 331.12545743 148.98453778 332.14249013 148.09960938 333.16210938 C134.66276594 348.48921657 134.66276594 348.48921657 126.91992188 349.72460938 C120.98325278 349.54810394 116.10635781 346.61904727 110.91430664 344.02856445 C98.5151833 337.35144345 98.5151833 337.35144345 85.07226562 337.04101562 C81.02794923 338.80756337 77.44717732 341.18883292 73.86035156 343.74316406 C70.45520546 345.96515274 66.77757282 347.23213631 62.95117188 348.54882812 C61.99029663 348.89844604 61.99029663 348.89844604 61.01000977 349.25512695 C59.2666636 349.88900753 57.51531697 350.50075469 55.76367188 351.11132812 C54.70792969 351.49417969 53.6521875 351.87703125 52.56445312 352.27148438 C49.76367188 353.11132812 49.76367188 353.11132812 45.76367188 353.11132812 C45.64668945 353.8087915 45.52970703 354.50625488 45.40917969 355.22485352 C44.14298642 360.88680626 41.6866914 366.18436347 39.51367188 371.54882812 C39.03542969 372.76376953 38.5571875 373.97871094 38.06445312 375.23046875 C33.07967138 387.55733419 33.07967138 387.55733419 28.76367188 391.11132812 C21.77857425 393.69484633 14.10972354 393.41726253 6.76367188 393.36132812 C5.74789062 393.3690625 4.73210937 393.37679688 3.68554688 393.38476562 C-10.26565318 393.34899332 -10.26565318 393.34899332 -15.23632812 391.11132812 C-19.18269942 387.08573931 -21.27225634 383.31947834 -23.34960938 378.03320312 C-23.60888718 377.38055481 -23.86816498 376.72790649 -24.13529968 376.05548096 C-24.67564062 374.68945521 -25.21065092 373.3213096 -25.74047852 371.95117188 C-26.5536838 369.84877465 -27.38276479 367.75319359 -28.21484375 365.65820312 C-32.23632812 355.44788111 -32.23632812 355.44788111 -32.23632812 353.11132812 C-33.22761719 352.99917969 -34.21890625 352.88703125 -35.24023438 352.77148438 C-39.40500901 352.1705445 -43.22034694 350.962766 -47.17382812 349.54882812 C-47.90311523 349.29069336 -48.63240234 349.03255859 -49.38378906 348.76660156 C-56.13516606 346.29545239 -62.48424024 343.17758246 -68.84570312 339.84570312 C-69.96460938 339.27335937 -71.08351563 338.70101563 -72.23632812 338.11132812 C-72.98785156 337.69093262 -73.739375 337.27053711 -74.51367188 336.83740234 C-78.32563074 335.8208344 -80.77866344 337.14915469 -84.18945312 338.75976562 C-84.84911072 339.0511441 -85.50876831 339.34252258 -86.18841553 339.64273071 C-88.29553123 340.5741775 -90.39159553 341.52738682 -92.48632812 342.48632812 C-109.72347049 350.36982712 -109.72347049 350.36982712 -117.23632812 349.11132812 C-126.17543909 344.39177022 -133.75949712 334.78774448 -140.23632812 327.11132812 C-140.71875977 326.5818457 -141.20119141 326.05236328 -141.69824219 325.50683594 C-145.03075302 321.50454429 -146.06313906 318.1968581 -145.78710938 312.98876953 C-144.62313022 306.90780396 -141.83961624 301.3744947 -139.23632812 295.79882812 C-138.09933256 293.32866074 -136.97810133 290.8525493 -135.86132812 288.37304688 C-135.35859375 287.28983154 -134.85585937 286.20661621 -134.33789062 285.09057617 C-133.23972335 282.12051074 -132.88450181 280.23584948 -133.23632812 277.11132812 C-134.36936788 274.72446774 -135.5376526 272.51059458 -136.86132812 270.23632812 C-142.68345908 259.80057982 -149.51346995 247.2537662 -149.23632812 235.11132812 C-150.10487427 234.87023315 -150.10487427 234.87023315 -150.9909668 234.62426758 C-158.02620136 232.60062304 -164.77630672 230.06921398 -171.54882812 227.29882812 C-172.60650391 226.88568359 -173.66417969 226.47253906 -174.75390625 226.046875 C-180.7609723 223.58719937 -184.7003052 221.6377776 -188.23632812 216.11132812 C-189.44206127 212.49412869 -189.43653845 209.14191262 -189.47460938 205.37304688 C-189.48268112 204.61466019 -189.49075287 203.8562735 -189.49906921 203.0749054 C-189.51288994 201.47028882 -189.52362109 199.8656431 -189.53149414 198.26098633 C-189.54301294 196.62483064 -189.56346341 194.9887125 -189.59301758 193.3527832 C-189.63580315 190.98427893 -189.65187757 188.61689017 -189.66210938 186.24804688 C-189.67961746 185.52284348 -189.69712555 184.79764008 -189.71516418 184.05046082 C-189.69345178 178.92517582 -188.45435848 176.05944353 -185.23632812 172.11132812 C-183.02929688 170.52929688 -183.02929688 170.52929688 -180.42382812 169.29882812 C-179.38484375 168.79351562 -178.34585938 168.28820312 -177.27539062 167.76757812 C-174.08461159 166.37255545 -170.83954481 165.34495058 -167.50976562 164.33007812 C-157.18242867 161.52827343 -157.18242867 161.52827343 -148.85400391 155.36523438 C-146.94628369 151.29376602 -146.44250741 146.96365613 -145.76513672 142.55566406 C-144.76077719 137.91316746 -142.6743929 133.70945613 -140.67382812 129.42382812 C-140.10752686 128.16832153 -140.10752686 128.16832153 -139.52978516 126.88745117 C-137.84131314 123.21671449 -136.34663082 120.24645329 -133.77148438 117.09179688 C-132.04818879 113.74606016 -132.09564188 113.35327883 -133.16210938 109.95117188 C-133.81814313 108.32318578 -134.51288587 106.71049988 -135.23632812 105.11132812 C-135.63255371 104.21559082 -136.0287793 103.31985352 -136.43701172 102.39697266 C-138.1957138 98.48837304 -139.98449815 94.59587114 -141.828125 90.7265625 C-144.65418885 84.49590332 -146.55072496 78.987764 -145.23632812 72.11132812 C-143.54882812 69.00976562 -143.54882812 69.00976562 -141.23632812 66.48632812 C-140.40875 65.56851563 -139.58117187 64.65070313 -138.72851562 63.70507812 C-137.90609375 62.84914062 -137.08367187 61.99320313 -136.23632812 61.11132812 C-135.57890625 60.39976562 -134.92148438 59.68820313 -134.24414062 58.95507812 C-132.30462469 56.92703657 -130.29912798 55.01372944 -128.23632812 53.11132812 C-127.36878906 52.28890625 -126.50125 51.46648437 -125.60742188 50.61914062 C-124.68058594 49.7915625 -123.75375 48.96398437 -122.79882812 48.11132812 C-121.95449219 47.34820312 -121.11015625 46.58507812 -120.24023438 45.79882812 C-116.05338345 43.44678703 -112.84068353 43.1234173 -108.23632812 44.11132812 C-104.5311473 45.65027333 -100.97444537 47.40332931 -97.38671875 49.1940918 C-84.97295432 55.8733653 -84.97295432 55.8733653 -71.50976562 56.18164062 C-67.45092096 54.41966466 -63.8541943 52.05090542 -60.26806641 49.47509766 C-57.10756923 47.35366804 -53.72557672 46.0588783 -50.17382812 44.73632812 C-48.38332031 44.02476562 -48.38332031 44.02476562 -46.55664062 43.29882812 C-42.85409841 41.97462479 -39.15866842 41.01992693 -35.28710938 40.33789062 C-28.44411314 36.24512716 -25.72861747 22.15260302 -23.12304688 15.046875 C-18.95634178 4.21473979 -18.95634178 4.21473979 -13.23632812 1.11132812 C-8.86379322 0.0853674 -4.468765 0.15372336 0 0 Z " fill="#2E3360" transform="translate(249.236328125,110.888671875)"/>
<path d="M0 0 C3.50554988 -0.09366734 7.00695791 -0.1233084 10.51367188 -0.13867188 C11.70605469 -0.15929687 12.8984375 -0.17992188 14.12695312 -0.20117188 C25.23210272 -0.25080383 25.23210272 -0.25080383 29.76367188 3.11132812 C33.11378977 6.82520882 34.94517736 10.45527769 36.77929688 15.09179688 C37.170336 16.07289177 37.170336 16.07289177 37.5692749 17.07380676 C38.11438772 18.44627392 38.65536809 19.82038898 39.19238281 21.19604492 C40.01663571 23.30641657 40.85387165 25.41127318 41.69335938 27.515625 C45.76367188 37.7996167 45.76367188 37.7996167 45.76367188 40.11132812 C46.29992187 40.18609375 46.83617187 40.26085937 47.38867188 40.33789062 C60.26114439 42.49741726 71.96057999 47.8075644 83.17993164 54.30297852 C86.67114299 56.47672598 86.67114299 56.47672598 90.60986328 56.86938477 C93.37919028 55.89468965 96.06976431 54.79238663 98.77148438 53.64257812 C100.49818359 52.90974609 100.49818359 52.90974609 102.25976562 52.16210938 C103.45730469 51.65035156 104.65484375 51.13859375 105.88867188 50.61132812 C107.69658203 49.84369141 107.69658203 49.84369141 109.54101562 49.06054688 C115.20452727 46.70024886 115.20452727 46.70024886 120.76367188 44.11132812 C124.34274615 43.12782218 127.16454279 43.18610214 130.76367188 44.11132812 C141.32012539 50.35122587 152.00752284 61.97710457 158.76367188 72.11132812 C160.78083425 81.25986101 155.95078062 89.42866611 152.13867188 97.42382812 C150.87600936 100.07764017 149.63762194 102.74097654 148.41210938 105.41210938 C147.85700684 106.57911377 147.3019043 107.74611816 146.72998047 108.94848633 C145.48438768 112.02534255 145.48438768 112.02534255 146.48974609 114.81591797 C147.12033936 115.952146 147.12033936 115.952146 147.76367188 117.11132812 C148.33601563 118.24183594 148.90835937 119.37234375 149.49804688 120.53710938 C149.984104 121.47296875 149.984104 121.47296875 150.47998047 122.42773438 C153.72651039 128.6968956 156.66362165 134.99677997 159.13867188 141.61132812 C159.49590332 142.5613269 159.49590332 142.5613269 159.86035156 143.53051758 C161.67769327 148.53082971 161.67769327 148.53082971 162.05755615 151.09553528 C162.39922578 153.28882159 162.83602638 155.0902936 163.76367188 157.11132812 C166.42438863 158.82376654 168.34201624 159.77172357 171.25585938 160.77929688 C171.99820831 161.06686356 172.74055725 161.35443024 173.50540161 161.65071106 C175.87302204 162.5634299 178.25342805 163.43332812 180.63867188 164.29882812 C183.01403445 165.18049293 185.38509763 166.07107009 187.7505188 166.9790802 C189.22006631 167.54121399 190.69578247 168.08755684 192.177948 168.61552429 C197.47050245 170.61091879 200.2475794 173.07914317 202.76367188 178.11132812 C202.88680488 180.66727076 202.95204047 183.19489864 202.96679688 185.75195312 C202.97249695 186.51175476 202.97819702 187.2715564 202.98406982 188.05438232 C202.9935238 189.6649842 203.00005538 191.27560545 203.00390625 192.88623047 C203.0135795 195.33791444 203.04458438 197.78874839 203.07617188 200.24023438 C203.08270539 201.80663566 203.0879545 203.37304293 203.09179688 204.93945312 C203.10414368 205.66779358 203.11649048 206.39613403 203.12921143 207.14654541 C203.10864741 211.90069681 202.37032448 215.12677196 199.76367188 219.11132812 C196.17915386 222.59283158 192.40090418 224.30027771 187.78320312 226.12695312 C187.12913986 226.38764587 186.4750766 226.64833862 185.80119324 226.91693115 C184.42872608 227.46204397 183.05461102 228.00302434 181.67895508 228.54003906 C179.56858343 229.36429196 177.46372682 230.2015279 175.359375 231.04101562 C165.0753833 235.11132812 165.0753833 235.11132812 162.76367188 235.11132812 C162.65152344 236.10261719 162.539375 237.09390625 162.42382812 238.11523438 C161.82286392 242.28017757 160.61444143 246.09499979 159.20117188 250.04882812 C158.94376221 250.77956543 158.68635254 251.51030273 158.42114258 252.26318359 C156.21358072 258.31594519 153.48575851 264.02134275 150.39233398 269.66967773 C148.13870805 273.88572763 147.07423282 277.3450715 146.76367188 282.11132812 C147.68893199 285.38512144 147.68893199 285.38512144 149.29101562 288.56835938 C149.83564453 289.76396484 150.38027344 290.95957031 150.94140625 292.19140625 C151.81666679 294.05613427 152.6982776 295.91773225 153.58178711 297.77856445 C160.37664373 312.21165843 160.37664373 312.21165843 158.76367188 320.11132812 C157.40039062 322.85351563 157.40039062 322.85351563 155.45117188 324.98632812 C154.7215625 325.80488281 153.99195313 326.6234375 153.24023438 327.46679688 C152.42296875 328.33949219 151.60570312 329.2121875 150.76367188 330.11132812 C149.87245729 331.12545743 148.98453778 332.14249013 148.09960938 333.16210938 C134.66276594 348.48921657 134.66276594 348.48921657 126.91992188 349.72460938 C120.98325278 349.54810394 116.10635781 346.61904727 110.91430664 344.02856445 C98.5151833 337.35144345 98.5151833 337.35144345 85.07226562 337.04101562 C81.02794923 338.80756337 77.44717732 341.18883292 73.86035156 343.74316406 C70.45520546 345.96515274 66.77757282 347.23213631 62.95117188 348.54882812 C61.99029663 348.89844604 61.99029663 348.89844604 61.01000977 349.25512695 C59.2666636 349.88900753 57.51531697 350.50075469 55.76367188 351.11132812 C54.70792969 351.49417969 53.6521875 351.87703125 52.56445312 352.27148438 C49.76367188 353.11132812 49.76367188 353.11132812 45.76367188 353.11132812 C45.64668945 353.8087915 45.52970703 354.50625488 45.40917969 355.22485352 C44.14298642 360.88680626 41.6866914 366.18436347 39.51367188 371.54882812 C39.03542969 372.76376953 38.5571875 373.97871094 38.06445312 375.23046875 C33.07967138 387.55733419 33.07967138 387.55733419 28.76367188 391.11132812 C21.77857425 393.69484633 14.10972354 393.41726253 6.76367188 393.36132812 C5.74789062 393.3690625 4.73210937 393.37679688 3.68554688 393.38476562 C-10.26565318 393.34899332 -10.26565318 393.34899332 -15.23632812 391.11132812 C-19.18269942 387.08573931 -21.27225634 383.31947834 -23.34960938 378.03320312 C-23.60888718 377.38055481 -23.86816498 376.72790649 -24.13529968 376.05548096 C-24.67564062 374.68945521 -25.21065092 373.3213096 -25.74047852 371.95117188 C-26.5536838 369.84877465 -27.38276479 367.75319359 -28.21484375 365.65820312 C-32.23632812 355.44788111 -32.23632812 355.44788111 -32.23632812 353.11132812 C-33.22761719 352.99917969 -34.21890625 352.88703125 -35.24023438 352.77148438 C-39.40500901 352.1705445 -43.22034694 350.962766 -47.17382812 349.54882812 C-47.90311523 349.29069336 -48.63240234 349.03255859 -49.38378906 348.76660156 C-56.13516606 346.29545239 -62.48424024 343.17758246 -68.84570312 339.84570312 C-69.96460938 339.27335937 -71.08351563 338.70101563 -72.23632812 338.11132812 C-72.98785156 337.69093262 -73.739375 337.27053711 -74.51367188 336.83740234 C-78.32563074 335.8208344 -80.77866344 337.14915469 -84.18945312 338.75976562 C-84.84911072 339.0511441 -85.50876831 339.34252258 -86.18841553 339.64273071 C-88.29553123 340.5741775 -90.39159553 341.52738682 -92.48632812 342.48632812 C-109.72347049 350.36982712 -109.72347049 350.36982712 -117.23632812 349.11132812 C-126.17543909 344.39177022 -133.75949712 334.78774448 -140.23632812 327.11132812 C-140.71875977 326.5818457 -141.20119141 326.05236328 -141.69824219 325.50683594 C-145.03075302 321.50454429 -146.06313906 318.1968581 -145.78710938 312.98876953 C-144.62313022 306.90780396 -141.83961624 301.3744947 -139.23632812 295.79882812 C-138.09933256 293.32866074 -136.97810133 290.8525493 -135.86132812 288.37304688 C-135.35859375 287.28983154 -134.85585937 286.20661621 -134.33789062 285.09057617 C-133.23972335 282.12051074 -132.88450181 280.23584948 -133.23632812 277.11132812 C-134.36936788 274.72446774 -135.5376526 272.51059458 -136.86132812 270.23632812 C-142.68345908 259.80057982 -149.51346995 247.2537662 -149.23632812 235.11132812 C-150.10487427 234.87023315 -150.10487427 234.87023315 -150.9909668 234.62426758 C-158.02620136 232.60062304 -164.77630672 230.06921398 -171.54882812 227.29882812 C-172.60650391 226.88568359 -173.66417969 226.47253906 -174.75390625 226.046875 C-180.7609723 223.58719937 -184.7003052 221.6377776 -188.23632812 216.11132812 C-189.44206127 212.49412869 -189.43653845 209.14191262 -189.47460938 205.37304688 C-189.48268112 204.61466019 -189.49075287 203.8562735 -189.49906921 203.0749054 C-189.51288994 201.47028882 -189.52362109 199.8656431 -189.53149414 198.26098633 C-189.54301294 196.62483064 -189.56346341 194.9887125 -189.59301758 193.3527832 C-189.63580315 190.98427893 -189.65187757 188.61689017 -189.66210938 186.24804688 C-189.67961746 185.52284348 -189.69712555 184.79764008 -189.71516418 184.05046082 C-189.69345178 178.92517582 -188.45435848 176.05944353 -185.23632812 172.11132812 C-183.02929688 170.52929688 -183.02929688 170.52929688 -180.42382812 169.29882812 C-179.38484375 168.79351562 -178.34585938 168.28820312 -177.27539062 167.76757812 C-174.08461159 166.37255545 -170.83954481 165.34495058 -167.50976562 164.33007812 C-157.18242867 161.52827343 -157.18242867 161.52827343 -148.85400391 155.36523438 C-146.94628369 151.29376602 -146.44250741 146.96365613 -145.76513672 142.55566406 C-144.76077719 137.91316746 -142.6743929 133.70945613 -140.67382812 129.42382812 C-140.10752686 128.16832153 -140.10752686 128.16832153 -139.52978516 126.88745117 C-137.84131314 123.21671449 -136.34663082 120.24645329 -133.77148438 117.09179688 C-132.04818879 113.74606016 -132.09564188 113.35327883 -133.16210938 109.95117188 C-133.81814313 108.32318578 -134.51288587 106.71049988 -135.23632812 105.11132812 C-135.63255371 104.21559082 -136.0287793 103.31985352 -136.43701172 102.39697266 C-138.1957138 98.48837304 -139.98449815 94.59587114 -141.828125 90.7265625 C-144.65418885 84.49590332 -146.55072496 78.987764 -145.23632812 72.11132812 C-143.54882812 69.00976562 -143.54882812 69.00976562 -141.23632812 66.48632812 C-140.40875 65.56851563 -139.58117187 64.65070313 -138.72851562 63.70507812 C-137.90609375 62.84914062 -137.08367187 61.99320313 -136.23632812 61.11132812 C-135.57890625 60.39976562 -134.92148438 59.68820313 -134.24414062 58.95507812 C-132.30462469 56.92703657 -130.29912798 55.01372944 -128.23632812 53.11132812 C-127.36878906 52.28890625 -126.50125 51.46648437 -125.60742188 50.61914062 C-124.68058594 49.7915625 -123.75375 48.96398437 -122.79882812 48.11132812 C-121.95449219 47.34820312 -121.11015625 46.58507812 -120.24023438 45.79882812 C-116.05338345 43.44678703 -112.84068353 43.1234173 -108.23632812 44.11132812 C-104.5311473 45.65027333 -100.97444537 47.40332931 -97.38671875 49.1940918 C-84.97295432 55.8733653 -84.97295432 55.8733653 -71.50976562 56.18164062 C-67.45092096 54.41966466 -63.8541943 52.05090542 -60.26806641 49.47509766 C-57.10756923 47.35366804 -53.72557672 46.0588783 -50.17382812 44.73632812 C-48.38332031 44.02476562 -48.38332031 44.02476562 -46.55664062 43.29882812 C-42.85409841 41.97462479 -39.15866842 41.01992693 -35.28710938 40.33789062 C-28.44411314 36.24512716 -25.72861747 22.15260302 -23.12304688 15.046875 C-18.95634178 4.21473979 -18.95634178 4.21473979 -13.23632812 1.11132812 C-8.86379322 0.0853674 -4.468765 0.15372336 0 0 Z M-85.42382812 106.79882812 C-108.24603923 129.75081879 -121.57076165 162.07801933 -121.61132812 194.36132812 C-121.09985593 231.24835415 -107.59465203 263.05689523 -81.87695312 289.54101562 C-53.73079862 316.08151702 -18.50151819 325.30474557 19.3828125 324.29052734 C26.79266147 323.89777538 33.70421385 322.32045597 40.76367188 320.11132812 C41.46991699 319.89702148 42.17616211 319.68271484 42.90380859 319.46191406 C58.10926548 314.75750115 72.33203014 308.14607779 84.76367188 298.11132812 C85.54653564 297.48653564 85.54653564 297.48653564 86.34521484 296.84912109 C113.14217181 275.35024245 130.08854306 245.08577386 134.31835938 210.91601562 C137.92570249 176.31385731 128.62734363 143.2334302 106.99023438 115.96289062 C85.92524663 90.36281072 56.91154806 73.25892733 23.76367188 69.11132812 C-18.10254367 65.21090635 -55.10064195 77.26837786 -85.42382812 106.79882812 Z " fill="#49508E" transform="translate(249.236328125,110.888671875)"/>
<path d="M0 0 C1.87416791 -0.00461261 3.74833221 -0.01096795 5.62248898 -0.01890898 C10.75700288 -0.03557581 15.89121862 -0.02736788 21.02573347 -0.0149641 C26.56910673 -0.00590515 32.11242912 -0.01988755 37.65579224 -0.03088379 C48.50909989 -0.04866452 59.36229686 -0.04483097 70.21560884 -0.03323323 C79.03680469 -0.02419745 87.85796954 -0.02297554 96.6791687 -0.02732849 C97.93494058 -0.02794142 99.19071245 -0.02855436 100.48453802 -0.02918586 C103.03566338 -0.03046477 105.58678872 -0.03176162 108.13791406 -0.03307623 C131.37462272 -0.04415566 154.6112666 -0.03266844 177.84796153 -0.01170584 C199.0501219 0.00727591 220.25218617 0.00557737 241.4543457 -0.0135498 C265.28757955 -0.03497881 289.12076041 -0.0433821 312.95400715 -0.03110075 C315.49571545 -0.02982656 318.03742376 -0.02856908 320.57913208 -0.02732849 C321.82968114 -0.02671139 323.08023021 -0.02609429 324.3686747 -0.02545848 C333.17864742 -0.02200568 341.98858603 -0.02783245 350.79855347 -0.0372467 C361.5358637 -0.04846835 372.27305696 -0.04542305 383.0103538 -0.02412373 C388.48804839 -0.01361566 393.965548 -0.00948752 399.44324112 -0.02272034 C404.45938153 -0.03465483 409.47514657 -0.02806398 414.49125302 -0.00681013 C416.30403687 -0.00234859 418.11685254 -0.00460024 419.92961586 -0.01431328 C430.88298734 -0.06849273 440.88848665 -0.03037336 449.50415039 7.63293457 C463.71413279 25.25331275 456.62915039 47.51079174 456.62915039 69.50793457 C292.94915039 69.50793457 129.26915039 69.50793457 -39.37084961 69.50793457 C-39.37084961 16.46793457 -39.37084961 16.46793457 -32.24584961 7.63293457 C-22.92490899 -0.65769054 -11.74624813 -0.06293804 0 0 Z " fill="#49508E" transform="translate(47.370849609375,7.4920654296875)"/>
<path d="M0 0 C6.60634614 3.45752695 11.7730284 9.52354333 14.125 16.5625 C14.39242554 19.49061584 14.39242554 19.49061584 14.41552734 22.75805664 C14.42828705 23.98605484 14.44104675 25.21405304 14.45419312 26.47926331 C14.45641876 27.79708298 14.45864441 29.11490265 14.4609375 30.47265625 C14.46736889 31.84598427 14.47409751 33.21931093 14.48110962 34.59263611 C14.49305848 37.46486591 14.49679266 40.33697562 14.49560547 43.20922852 C14.4954018 46.88701827 14.52276287 50.56403946 14.55714989 54.24164677 C14.57939389 57.07526686 14.58344389 59.90870075 14.58238602 62.74239922 C14.58588777 64.75655203 14.60755638 66.77064675 14.62948608 68.78468323 C14.62333282 70.00952927 14.61717957 71.23437531 14.61083984 72.49633789 C14.61368988 73.57379776 14.61653992 74.65125763 14.61947632 75.7613678 C14.00093309 79.26531995 12.91315251 80.41394261 10.125 82.5625 C6.6875 83.5625 6.6875 83.5625 3.125 83.5625 C0.32310554 81.79608828 -1.39024911 80.53200178 -2.875 77.5625 C-2.95872659 76.04101674 -2.98230027 74.51594222 -2.97265625 72.9921875 C-2.96943359 72.09628906 -2.96621094 71.20039063 -2.96289062 70.27734375 C-2.95032227 68.87162109 -2.95032227 68.87162109 -2.9375 67.4375 C-2.93298828 66.49261719 -2.92847656 65.54773438 -2.92382812 64.57421875 C-2.91202375 62.2369523 -2.89408799 59.89971831 -2.875 57.5625 C-8.485 57.5625 -14.095 57.5625 -19.875 57.5625 C-19.82859375 59.03203125 -19.7821875 60.5015625 -19.734375 62.015625 C-19.69685517 63.94789635 -19.66045524 65.88018967 -19.625 67.8125 C-19.57472656 69.26462891 -19.57472656 69.26462891 -19.5234375 70.74609375 C-19.42462641 77.90989792 -19.42462641 77.90989792 -21.67578125 81.171875 C-24.83080874 83.1668835 -27.15122468 83.5625 -30.875 83.5625 C-33.67689446 81.79608828 -35.39024911 80.53200178 -36.875 77.5625 C-36.99154858 75.70631994 -37.04468035 73.84601901 -37.06787109 71.98632812 C-37.08393402 70.81751099 -37.09999695 69.64869385 -37.11654663 68.44445801 C-37.16104292 63.07169068 -37.20253962 57.69907089 -37.22509766 52.32617188 C-37.23837832 49.49771355 -37.26611687 46.66998679 -37.30712891 43.84179688 C-37.36632689 39.75899286 -37.3838103 35.6769615 -37.3984375 31.59375 C-37.42110687 30.33921021 -37.44377625 29.08467041 -37.46713257 27.79211426 C-37.44661903 19.1978831 -36.12535616 12.10576617 -30.0899353 5.65441895 C-21.72465549 -2.0881035 -10.77509262 -4.08516555 0 0 Z " fill="#FCFCFC" transform="translate(198.875,266.4375)"/>
<path d="M0 0 C1.58107544 0.01848999 1.58107544 0.01848999 3.1940918 0.03735352 C4.94302734 0.04605469 4.94302734 0.04605469 6.72729492 0.05493164 C8.54197266 0.11003906 8.54197266 0.11003906 10.39331055 0.16625977 C11.59149414 0.16819336 12.78967773 0.17012695 14.02416992 0.17211914 C22.78255093 0.30240911 30.67211929 1.15141874 37.08081055 7.72875977 C42.69605865 14.42953315 43.97699763 20.42410376 43.6003418 29.09594727 C42.62270247 35.93207186 40.06822773 40.60268557 35.39331055 45.60375977 C28.9599104 49.73084665 23.47746529 51.97821472 15.74487305 51.83422852 C14.14699951 51.81138794 14.14699951 51.81138794 12.5168457 51.78808594 C11.3110083 51.75871948 11.3110083 51.75871948 10.08081055 51.72875977 C10.10175781 52.51524902 10.12270508 53.30173828 10.14428711 54.11206055 C10.22768808 57.69249574 10.27954831 61.27272618 10.33081055 64.85375977 C10.36432617 66.09125977 10.3978418 67.32875977 10.43237305 68.60375977 C10.54293718 78.8862243 10.54293718 78.8862243 8.3112793 82.52172852 C5.44468687 85.35819913 3.9478779 85.8085244 0.04956055 86.04125977 C-3.3738548 85.4978605 -4.8932391 83.36863446 -6.91918945 80.72875977 C-8.37521287 77.81671294 -8.07877005 75.2402155 -8.11206055 71.98754883 C-8.12023804 71.29463745 -8.12841553 70.60172607 -8.13684082 69.88781738 C-8.16169342 67.5900153 -8.17821197 65.29227507 -8.19262695 62.99438477 C-8.19795063 62.20936333 -8.20327431 61.42434189 -8.20875931 60.61553192 C-8.23549264 56.45894853 -8.25486532 52.30239517 -8.26928711 48.14575195 C-8.28591927 43.85708953 -8.3306835 39.56919793 -8.38165855 35.28082657 C-8.41535708 31.97962589 -8.4268674 28.67860741 -8.43251419 25.37725067 C-8.43922149 23.79681266 -8.45443021 22.21638642 -8.478405 20.63611603 C-8.51011316 18.41929368 -8.51008615 16.20453946 -8.50268555 13.98754883 C-8.5107724 12.72783264 -8.51885925 11.46811646 -8.52719116 10.17022705 C-7.63025491 5.09330582 -5.27288028 1.31634588 0 0 Z " fill="#F9FAFB" transform="translate(237.919189453125,264.271240234375)"/>
<path d="M0 0 C0.91471573 -0.00619858 1.82943146 -0.01239716 2.77186584 -0.01878357 C4.70426368 -0.02587983 6.63672268 -0.02271109 8.5690918 -0.01000977 C11.52181907 0.00384368 14.47136913 -0.03020119 17.42382812 -0.06835938 C19.30338619 -0.06931073 21.18294821 -0.06745089 23.0625 -0.0625 C23.94284409 -0.07575821 24.82318817 -0.08901642 25.73020935 -0.10267639 C30.16677405 -0.03548803 32.03349537 0.13237049 35.65454102 2.91821289 C37.59765625 5.56640625 37.59765625 5.56640625 38.22265625 8.56640625 C37.39696191 12.52973908 35.66324194 14.01175151 32.59765625 16.56640625 C30.59765625 17.56640625 30.59765625 17.56640625 20.59765625 17.56640625 C20.59765625 34.39640625 20.59765625 51.22640625 20.59765625 68.56640625 C24.55765625 68.56640625 28.51765625 68.56640625 32.59765625 68.56640625 C35.84765625 70.69140625 35.84765625 70.69140625 37.59765625 73.56640625 C38.34228865 77.53777906 37.97032503 79.00740308 35.72265625 82.37890625 C32.37703292 85.82293027 30.1248051 85.71122969 25.40068054 85.80795288 C21.81099338 85.8524527 18.22149037 85.89346979 14.6315918 85.91650391 C12.73921406 85.93305957 10.84689875 85.9603446 8.95483398 85.99853516 C6.22476811 86.05335097 3.49616735 86.07518443 0.765625 86.08984375 C-0.07724564 86.11251312 -0.92011627 86.1351825 -1.78852844 86.15853882 C-6.12728608 86.14296493 -7.87732987 85.96683125 -11.4362793 83.25244141 C-13.40234375 80.56640625 -13.40234375 80.56640625 -14.02734375 77.06640625 C-13.40234375 73.56640625 -13.40234375 73.56640625 -11.65234375 70.62890625 C-8.40234375 68.56640625 -8.40234375 68.56640625 3.59765625 68.56640625 C3.59765625 51.40640625 3.59765625 34.24640625 3.59765625 16.56640625 C-0.69234375 16.56640625 -4.98234375 16.56640625 -9.40234375 16.56640625 C-13.40234375 12.56640625 -13.40234375 12.56640625 -13.93359375 10.56640625 C-13.92328125 9.90640625 -13.91296875 9.24640625 -13.90234375 8.56640625 C-13.9178125 7.57640625 -13.9178125 7.57640625 -13.93359375 6.56640625 C-12.05587025 -0.50267047 -6.049436 -0.03400441 0 0 Z " fill="#FCFCFC" transform="translate(312.40234375,264.43359375)"/>
<path d="M0 0 C1.86936218 -0.00361794 1.86936218 -0.00361794 3.77648926 -0.00730896 C7.08268124 -0.00607986 10.38768042 0.01895467 13.69366455 0.0524292 C15.71711325 0.06639495 17.7397217 0.06282619 19.76318359 0.05249023 C23.65501228 0.03371783 27.54569195 0.04314286 31.4375 0.0625 C33.24547058 0.0550602 33.24547058 0.0550602 35.08996582 0.04747009 C43.39014254 0.16434416 43.39014254 0.16434416 47.45898438 2.44555664 C49.90617375 5.48179617 50.14984114 7.77001013 50.21875 11.62890625 C49.11666992 15.02698651 48.29777124 15.57622542 45.21875 17.62890625 C42.68972778 17.90306091 42.68972778 17.90306091 39.63330078 17.93530273 C38.48846222 17.95129013 37.34362366 17.96727753 36.16409302 17.98374939 C34.92658295 17.98911209 33.68907288 17.99447479 32.4140625 18 C31.1427951 18.00902847 29.87152771 18.01805695 28.56173706 18.02735901 C25.86995279 18.04188024 23.17859348 18.05154797 20.48681641 18.05444336 C17.0442933 18.05982516 13.60294483 18.09749571 10.16075325 18.14318752 C6.87025954 18.18015671 3.579736 18.18147427 0.2890625 18.1875 C-1.56112991 18.21679848 -1.56112991 18.21679848 -3.44869995 18.24668884 C-12.96740075 18.19643263 -12.96740075 18.19643263 -16.05908203 15.31274414 C-18.35206264 11.73934807 -18.52579512 9.79835893 -17.78125 5.62890625 C-13.43367705 -1.06506304 -7.38835743 -0.08127045 0 0 Z " fill="#2E3360" transform="translate(427.78125,33.37109375)"/>
<path d="M0 0 C2.69921875 1.36328125 2.69921875 1.36328125 5 4 C5.62512779 7.59888443 5.46996908 11.11125294 5.3125 14.75 C5.28994141 15.73355469 5.26738281 16.71710938 5.24414062 17.73046875 C5.18530981 20.15429813 5.09563118 22.57734348 5 25 C-0.61 25 -6.22 25 -12 25 C-12.13523325 21.76942783 -12.23421546 18.5445331 -12.3125 15.3125 C-12.35439453 14.40048828 -12.39628906 13.48847656 -12.43945312 12.54882812 C-12.52384969 7.90701686 -12.53354879 5.72106084 -9.69921875 1.890625 C-6.152199 -0.59382878 -4.24869399 -0.68282582 0 0 Z " fill="#313662" transform="translate(191,282)"/>
<path d="M0 0 C1.22332031 -0.03738281 2.44664063 -0.07476562 3.70703125 -0.11328125 C7.78566893 0.38567667 9.36067076 1.38135972 12.1875 4.3125 C13.25 7.75 13.25 7.75 13.1875 11.3125 C11.42108828 14.11439446 10.15700178 15.82774911 7.1875 17.3125 C4.71193304 17.48932621 2.29000105 17.58980822 -0.1875 17.625 C-0.86039063 17.65400391 -1.53328125 17.68300781 -2.2265625 17.71289062 C-5.62739059 17.75640516 -7.47117605 17.5676645 -10.2265625 15.5078125 C-12.47758822 12.39186064 -12.8125 10.13609619 -12.8125 6.3125 C-9.18759496 0.56265063 -6.56369588 0.13058662 0 0 Z " fill="#FAFAFC" transform="translate(46.8125,33.6875)"/>
<path d="M0 0 C3.39469781 1.21488329 3.88567556 1.86054856 6 5 C6.37703343 8.21322517 6.18706578 10.9814613 5 14 C2.51263049 16.7658064 0.99044627 17.00110465 -2.75 17.43359375 C-4.16656311 17.45077222 -5.58340305 17.45161464 -7 17.4375 C-7.7115625 17.45748047 -8.423125 17.47746094 -9.15625 17.49804688 C-12.6106331 17.4948245 -14.63657171 17.26263598 -17.46484375 15.21875 C-19.34686379 12.49868032 -19.64537312 10.26080055 -19.41796875 6.97265625 C-19 5 -19 5 -17.375 2 C-11.8534071 -1.27205505 -6.24059927 -0.88214078 0 0 Z " fill="#FAFBFC" transform="translate(139,34)"/>
<path d="M0 0 C4.63309353 2.26618705 4.63309353 2.26618705 6 5 C6.48006117 9.2405403 6.57731798 11.2437793 3.9453125 14.69140625 C0.23517971 17.59948116 -1.830182 17.67169818 -6.5 17.625 C-8.43359375 17.64433594 -8.43359375 17.64433594 -10.40625 17.6640625 C-14.81216976 16.84992515 -16.29068379 15.50677532 -19 12 C-19.75123045 7.79310949 -19.44098839 5.79717131 -17.375 2.0625 C-11.99082715 -1.22782785 -6.15045455 -0.8542298 0 0 Z " fill="#FBFBFC" transform="translate(96,34)"/>
<path d="M0 0 C10.98214286 -0.66964286 10.98214286 -0.66964286 14.6875 2 C16.92983683 4.90897751 17.41286751 5.62338234 17.625 9.0625 C16.95315923 13.29509682 16.38463799 14.51129559 13 17 C9.14854957 18.92572521 4.19956748 18.04883218 0 18 C0 12.06 0 6.12 0 0 Z " fill="#3D426B" transform="translate(247,281)"/>
</svg>
