<svg viewBox="0 0 48 48" xmlns="http://www.w3.org/2000/svg">
  <g fill="none" fill-rule="evenodd">
    <path fill="#95BF47" d="M30.8471,6.99462 C31.633657,7.77951 32.525036,8.6685 32.525036,8.6685 C32.525036,8.6685 36.195316,8.9415 36.368457,8.9565 C36.54309,8.9715 36.753545,9.105 36.786382,9.3465 C36.819219,9.588 42,44.7915 42,44.7915 L29.287087,47.554966 L30.8471,6.99462 Z M28.896906,5.661214 C28.799504,5.673829 28.715018,5.693029 28.656242,5.7105 C28.624898,5.7195 28.099506,5.883 27.229326,6.153 C26.377057,3.69 24.874018,1.4265 22.230641,1.4265 C22.157504,1.4265 22.081382,1.4295 22.006752,1.434 C21.254487,0.435 20.32311,0 19.518604,0 C13.358684,0 10.415295,7.74 9.492875,11.6715 C7.09876,12.417 5.398699,12.9465 5.182274,13.0155 C3.844913,13.437 3.80312,13.479 3.628487,14.7435 C3.495647,15.702 0,42.8715 0,42.8715 L27.239774,48 L27.268734,47.993705 L28.896906,5.661214 Z M21.805252,7.572 C21.805252,7.6665 21.80376,7.7535 21.80376,7.8405 C20.303707,8.307 18.675291,8.814 17.042397,9.3225 C17.958847,5.7675 19.676819,4.05 21.179857,3.402 C21.557482,4.356 21.805252,5.7255 21.805252,7.572 Z M19.348449,1.6605 C19.615622,1.6605 19.882796,1.752 20.139522,1.929 C18.164825,2.862 16.049824,5.214 15.155762,9.909 C13.849746,10.3155 12.573581,10.713 11.392942,11.0805 C12.439248,7.4985 14.924411,1.6605 19.348449,1.6605 Z M20.409681,22.593 C20.409681,22.593 18.815594,21.738 16.861793,21.738 C13.99602,21.738 13.851238,23.5455 13.851238,24 C13.851238,26.4855 20.296244,27.438 20.296244,33.258 C20.296244,37.836 17.406589,40.785 13.509435,40.785 C8.83315,40.785 6.44202,37.86 6.44202,37.86 L7.694303,33.7035 C7.694303,33.7035 10.1526,35.8245 12.2273,35.8245 C13.58108,35.8245 14.133338,34.752 14.133338,33.969 C14.133338,30.7275 8.84509,30.582 8.84509,25.2555 C8.84509,20.7735 12.046697,16.4355 18.509613,16.4355 C20.999254,16.4355 22.230641,17.1525 22.230641,17.1525 L20.409681,22.593 Z M23.418743,7.338 C23.418743,7.1745 23.420235,7.014 23.420235,6.8385 C23.420235,5.3085 23.208287,4.0755 22.869469,3.099 C24.232204,3.27 25.139699,4.8285 25.723302,6.621 C25.039696,6.834 24.262056,7.0755 23.418743,7.338 Z"/>
  </g>
</svg>
